# xmcd
#
# Track frame offsets: 
#        150
#        16526
#        32314
#        48833
#        64286
#        80095
#        96614
#        124996
#        141658
#        152709
#        173122
#        184890
#        199201
#        218646
#        238324
#        254700
#        267760
#        282158
#        297517
#        314242
#
# Disc length: 4451 seconds
#
# Revision: 1
# Processed by: cddbd v1.5.2PL0 Copyright (c) Steve Scherf et al.
# Submitted via: ExactAudioCopy v0.95b4
#
DISCID=3e116114
DTITLE=Laura Fygi - Song Book 1
DYEAR=1900
DGENRE=Jazz
TTITLE0=Midnight Stroll
TTITLE1=Every Moment
TTITLE2=Change
TTITLE3=Girl Talk
TTITLE4=Enfant Terrible
TTITLE5=How do I Win Your Heart
TTITLE6=He Saw Her There
TTITLE7=Latin Eyes
TTITLE8=Loved You So Long
TTITLE9=You Can't Judge
TTITLE10=Remember Me
TTITLE11=No Small Talk Please
TTITLE12=Eternal Honey Moon
TTITLE13=I Belong
TTITLE14=Solamente Una Vez
TTITLE15=Cuando Vuelva A Tu Lado
TTITLE16=Historia De Un Amor
TTITLE17=La Mentira
TTITLE18=Piel Canela
TTITLE19=Noche De Ronda
EXTD=
EXTT0=
EXTT1=
EXTT2=
EXTT3=
EXTT4=
EXTT5=
EXTT6=
EXTT7=
EXTT8=
EXTT9=
EXTT10=
EXTT11=
EXTT12=
EXTT13=
EXTT14=
EXTT15=
EXTT16=
EXTT17=
EXTT18=
EXTT19=
PLAYORDER=
